<?xml version="1.0" encoding="UTF-8"?>
<svg id="Layer_2" data-name="Layer 2" xmlns="http://www.w3.org/2000/svg" xmlns:xlink="http://www.w3.org/1999/xlink" viewBox="0 0 175.34 112.03">
  <defs>
    <style>
      .cls-1 {
        fill: url(#linear-gradient);
      }
    </style>
    <linearGradient id="linear-gradient" x1="-46.5" y1="310.52" x2="162.07" y2="-9.79" gradientUnits="userSpaceOnUse">
      <stop offset=".01" stop-color="#fff"/>
      <stop offset="1" stop-color="#5768fe"/>
    </linearGradient>
  </defs>
  <g id="Layer_1-2" data-name="Layer 1">
    <path class="cls-1" d="M31.24,112.03H7.59c-6.04,0-9.65-6.73-6.31-11.76L63.3,6.77C66.1,2.54,70.84,0,75.92,0h19.59c6.04,0,9.65,6.73,6.31,11.76L37.55,108.65c-1.4,2.12-3.77,3.39-6.31,3.39ZM105.14,105.26L167.17,11.76C170.51,6.73,166.9,0,160.86,0h-23.66c-2.54,0-4.91,1.27-6.31,3.39l-64.27,96.89c-3.34,5.03.27,11.76,6.31,11.76h19.59c5.08,0,9.82-2.54,12.62-6.77ZM175.34,104.46v-22.2c0-4.18-3.39-7.57-7.57-7.57h-22.2c-4.18,0-7.57,3.39-7.57,7.57v22.2c0,4.18,3.39,7.57,7.57,7.57h22.2c4.18,0,7.57-3.39,7.57-7.57Z"/>
  </g>
</svg>
