<?xml version="1.0" encoding="UTF-8"?>
<svg id="Layer_2" data-name="Layer 2" xmlns="http://www.w3.org/2000/svg" xmlns:xlink="http://www.w3.org/1999/xlink" viewBox="0 0 1008.47 112.03">
  <defs>
    <style>
      .cls-1 {
        fill: url(#linear-gradient);
      }

      .cls-2 {
        fill: #fff;
      }
    </style>
    <linearGradient id="linear-gradient" x1="-46.5" y1="310.52" x2="162.07" y2="-9.79" gradientUnits="userSpaceOnUse">
      <stop offset=".01" stop-color="#fff"/>
      <stop offset="1" stop-color="#5768fe"/>
    </linearGradient>
  </defs>
  <g id="Layer_1-2" data-name="Layer 1">
    <g>
      <path class="cls-1" d="M31.24,112.03H7.59c-6.04,0-9.65-6.73-6.31-11.76L63.3,6.77C66.1,2.54,70.84,0,75.92,0h19.59c6.04,0,9.65,6.73,6.31,11.76L37.55,108.65c-1.4,2.12-3.77,3.39-6.31,3.39ZM105.14,105.26L167.17,11.76C170.51,6.73,166.9,0,160.86,0h-23.66c-2.54,0-4.91,1.27-6.31,3.39l-64.27,96.89c-3.34,5.03.27,11.76,6.31,11.76h19.59c5.08,0,9.82-2.54,12.62-6.77ZM175.34,104.46v-22.2c0-4.18-3.39-7.57-7.57-7.57h-22.2c-4.18,0-7.57,3.39-7.57,7.57v22.2c0,4.18,3.39,7.57,7.57,7.57h22.2c4.18,0,7.57-3.39,7.57-7.57Z"/>
      <g>
        <polygon class="cls-2" points="357.59 5.74 351.99 5.74 321.03 80.96 289.96 5.74 283.5 5.74 272.16 5.74 266.27 5.74 266.27 106.25 283.5 106.25 283.5 33.41 313.37 106.25 327.73 106.25 357.59 33.41 357.59 106.25 374.82 106.25 374.82 5.74 368.93 5.74 357.59 5.74"/>
        <path class="cls-2" d="M448.91,42.21c-2.04-2.37-4.38-4.41-7.04-6.1-5.17-3.3-11.06-4.95-17.66-4.95-6.7,0-12.8,1.68-18.31,5.03-5.51,3.35-9.81,7.95-12.92,13.78-3.11,5.84-4.67,12.3-4.67,19.38,0,7.18,1.55,13.69,4.67,19.53,3.11,5.84,7.42,10.43,12.92,13.78,5.5,3.35,11.61,5.03,18.31,5.03s12.49-1.65,17.66-4.95c2.66-1.7,5-3.74,7.04-6.1v9.62h17.23V32.59h-17.23v9.62ZM446.11,80.84c-1.87,3.45-4.43,6.15-7.68,8.11-3.26,1.96-6.89,2.94-10.91,2.94s-7.66-.98-10.91-2.94c-3.26-1.96-5.81-4.67-7.68-8.11-1.87-3.45-2.8-7.27-2.8-11.49,0-4.21.93-8.02,2.8-11.42,1.87-3.4,4.43-6.08,7.68-8.04,3.25-1.96,6.89-2.94,10.91-2.94s7.66.98,10.91,2.94c3.25,1.96,5.81,4.64,7.68,8.04,1.87,3.4,2.8,7.2,2.8,11.42,0,4.21-.93,8.04-2.8,11.49Z"/>
        <path class="cls-2" d="M540.23,42.21c-2.04-2.37-4.38-4.41-7.04-6.1-5.17-3.3-11.06-4.95-17.66-4.95s-12.8,1.68-18.31,5.03c-5.51,3.35-9.81,7.95-12.92,13.78-3.11,5.84-4.67,12.3-4.67,19.38,0,7.18,1.55,13.69,4.67,19.53,3.11,5.84,7.42,10.43,12.92,13.78,5.5,3.35,11.61,5.03,18.31,5.03s12.49-1.65,17.66-4.95c2.66-1.7,5-3.74,7.04-6.1v9.62h17.23V0h-17.23v42.21ZM537.43,80.84c-1.87,3.45-4.43,6.15-7.68,8.11-3.26,1.96-6.89,2.94-10.91,2.94-4.02,0-7.66-.98-10.91-2.94-3.26-1.96-5.81-4.67-7.68-8.11-1.87-3.45-2.8-7.27-2.8-11.49s.93-8.02,2.8-11.42c1.87-3.4,4.43-6.08,7.68-8.04,3.25-1.96,6.89-2.94,10.91-2.94s7.66.98,10.91,2.94c3.25,1.96,5.81,4.64,7.68,8.04,1.87,3.4,2.8,7.2,2.8,11.42,0,4.21-.93,8.04-2.8,11.49Z"/>
        <path class="cls-2" d="M630.68,37.12c-6.22-3.97-13.31-5.96-21.25-5.96-7.18,0-13.71,1.68-19.6,5.03-5.89,3.35-10.51,7.95-13.86,13.78-3.35,5.84-5.03,12.3-5.03,19.38,0,7.18,1.72,13.69,5.17,19.53,3.45,5.84,8.16,10.43,14.14,13.78,5.98,3.35,12.61,5.03,19.89,5.03,7.75,0,14.67-1.84,20.75-5.53,6.08-3.68,10.74-8.59,14-14.72l-14.21-6.32c-1.92,3.64-4.64,6.51-8.18,8.61-3.54,2.11-7.52,3.16-11.92,3.16s-8.33-1.03-11.77-3.09c-3.45-2.06-6.15-4.88-8.11-8.47-1.02-1.87-1.77-3.86-2.26-5.96h58.9c1.15-8.04.21-15.44-2.8-22.18-3.02-6.75-7.63-12.11-13.86-16.08ZM590.62,57.5c1.91-3.59,4.52-6.41,7.83-8.47,3.3-2.06,6.96-3.09,10.98-3.09s7.63.93,10.84,2.8c3.21,1.87,5.74,4.45,7.61,7.75.98,1.74,1.72,3.59,2.24,5.53h-41.3c.46-1.56,1.03-3.08,1.8-4.52Z"/>
        <polygon class="cls-2" points="736.42 88.64 719.41 32.59 701.9 32.59 684.9 88.64 668.44 32.59 650.35 32.59 674.62 106.25 693.57 106.25 710.13 57.73 726.59 106.25 745.55 106.25 769.96 32.59 752.87 32.59 736.42 88.64"/>
        <path class="cls-2" d="M832.85,37.12c-6.22-3.97-13.31-5.96-21.25-5.96-7.18,0-13.71,1.68-19.6,5.03-5.89,3.35-10.51,7.95-13.86,13.78-3.35,5.84-5.03,12.3-5.03,19.38,0,7.18,1.72,13.69,5.17,19.53,3.45,5.84,8.16,10.43,14.14,13.78,5.98,3.35,12.61,5.03,19.89,5.03,7.75,0,14.67-1.84,20.75-5.53,6.08-3.68,10.74-8.59,14-14.72l-14.21-6.32c-1.92,3.64-4.64,6.51-8.18,8.61-3.54,2.11-7.52,3.16-11.92,3.16s-8.33-1.03-11.77-3.09c-3.45-2.06-6.15-4.88-8.11-8.47-1.02-1.87-1.77-3.86-2.26-5.96h58.9c1.15-8.04.21-15.44-2.8-22.18-3.02-6.75-7.63-12.11-13.86-16.08ZM792.78,57.5c1.91-3.59,4.52-6.41,7.83-8.47,3.3-2.06,6.96-3.09,10.98-3.09s7.63.93,10.84,2.8c3.21,1.87,5.74,4.45,7.61,7.75.98,1.74,1.72,3.59,2.24,5.53h-41.3c.46-1.56,1.03-3.08,1.8-4.52Z"/>
        <rect class="cls-2" x="863.57" y="0" width="17.23" height="106.25"/>
        <rect class="cls-2" x="897.02" y="0" width="17.23" height="106.25"/>
      </g>
      <g>
        <path class="cls-2" d="M928.83,99.82c-1.01,0-1.88.35-2.61,1.04-.73.7-1.09,1.58-1.09,2.65s.36,1.98,1.09,2.7c.73.73,1.6,1.09,2.61,1.09,1.07,0,1.97-.36,2.7-1.09.73-.73,1.09-1.63,1.09-2.7s-.36-1.96-1.09-2.65c-.73-.69-1.63-1.04-2.7-1.04Z"/>
        <path class="cls-2" d="M984.29,73.33c-.38-1.04-.82-2.06-1.33-3.04-1.96-3.76-4.68-6.73-8.15-8.91-3.48-2.18-7.43-3.27-11.85-3.27s-8.22,1.08-11.76,3.22c-3.54,2.15-6.34,5.12-8.39,8.91-2.05,3.79-3.08,8-3.08,12.61,0,4.68,1.03,8.91,3.08,12.7,2.05,3.79,4.85,6.76,8.39,8.91,3.54,2.15,7.46,3.22,11.76,3.22s8.37-1.07,11.85-3.22c3.48-2.15,6.19-5.12,8.15-8.91.51-.99.95-2.02,1.33-3.07v14.26h5.21v-47.69h-5.21v14.28ZM981.68,92.99c-1.74,3.03-4.14,5.42-7.21,7.16-3.07,1.74-6.49,2.61-10.29,2.61-3.54,0-6.76-.87-9.67-2.61-2.91-1.74-5.21-4.12-6.92-7.16-1.71-3.03-2.56-6.38-2.56-10.05,0-3.73.85-7.11,2.56-10.14,1.71-3.03,4.03-5.42,6.97-7.16,2.94-1.74,6.15-2.61,9.62-2.61,3.86,0,7.3.87,10.33,2.61,3.03,1.74,5.42,4.12,7.16,7.16,1.74,3.03,2.61,6.42,2.61,10.14,0,3.67-.87,7.02-2.61,10.05Z"/>
        <path class="cls-2" d="M1004.86,48.24c1.01,0,1.86-.35,2.56-1.04s1.04-1.55,1.04-2.56c0-1.07-.35-1.96-1.04-2.65-.7-.69-1.55-1.04-2.56-1.04s-1.86.35-2.56,1.04c-.7.7-1.04,1.58-1.04,2.65,0,1.01.35,1.87,1.04,2.56.69.7,1.55,1.04,2.56,1.04Z"/>
        <rect class="cls-2" x="1002.21" y="59.05" width="5.31" height="47.69"/>
      </g>
    </g>
  </g>
</svg>