<?xml version="1.0" encoding="UTF-8"?>
<svg id="Layer_2" data-name="Layer 2" xmlns="http://www.w3.org/2000/svg" xmlns:xlink="http://www.w3.org/1999/xlink" viewBox="0 0 655.92 419.11">
  <defs>
    <style>
      .cls-1 {
        fill: url(#linear-gradient);
      }
    </style>
    <linearGradient id="linear-gradient" x1="-173.94" y1="1161.6" x2="606.3" y2="-36.63" gradientUnits="userSpaceOnUse">
      <stop offset=".01" stop-color="#fff"/>
      <stop offset="1" stop-color="#5768fe"/>
    </linearGradient>
  </defs>
  <g id="Layer_1-2" data-name="Layer 1">
    <path class="cls-1" d="M116.87,419.11H28.38c-22.6,0-36.1-25.16-23.61-43.99L236.79,25.34C247.29,9.51,265.01,0,284,0h73.29c22.6,0,36.1,25.16,23.61,43.99l-240.42,362.45c-5.25,7.91-14.11,12.67-23.61,12.67ZM393.33,393.77L625.35,43.99C637.84,25.16,624.34,0,601.74,0h-88.49c-9.49,0-18.36,4.76-23.61,12.67l-240.42,362.45c-12.49,18.83,1.01,43.99,23.61,43.99h73.29c18.99,0,36.72-9.51,47.21-25.34ZM655.92,390.78v-83.05c0-15.65-12.68-28.33-28.33-28.33h-83.05c-15.65,0-28.33,12.68-28.33,28.33v83.05c0,15.65,12.68,28.33,28.33,28.33h83.05c15.65,0,28.33-12.68,28.33-28.33Z"/>
  </g>
</svg>
